<?xml version="1.0" encoding="UTF-8"?>
<svg width="20px" height="40px" viewBox="0 0 20 40" version="1.1" xmlns="http://www.w3.org/2000/svg" xmlns:xlink="http://www.w3.org/1999/xlink">
    <!-- Generator: Sketch 59.1 (86144) - https://sketch.com -->
    <title>766-arrow-right-toolbar@2x</title>
    <desc>Created with Sketch.</desc>
    <g id="Assets" stroke="none" stroke-width="1" fill="none" fill-rule="evenodd">
        <g id="Artboard" transform="translate(-224.000000, -380.000000)" fill="#000000" fill-rule="nonzero">
            <g id="Icons-44" transform="translate(22.000000, 22.000000)">
                <g id="766-arrow-right-toolbar@2x" transform="translate(202.000000, 358.000000)">
                    <path d="M20,20 C20,19.73 19.891,19.488 19.718,19.309 L19.721,19.307 L1.721,0.307 L1.718,0.309 C1.536,0.12 1.283,0 1,0 C0.447,0 0,0.447 0,1 C0,1.27 0.109,1.512 0.282,1.691 L0.279,1.693 L17.623,20 L0.279,38.306 L0.282,38.309 C0.109,38.488 0,38.73 0,39 C0,39.552 0.447,40 1,40 C1.283,40 1.536,39.88 1.718,39.691 L1.721,39.693 L19.721,20.693 L19.718,20.691 C19.891,20.512 20,20.27 20,20 Z" id="Path"></path>
                </g>
            </g>
        </g>
    </g>
</svg>