<?xml version="1.0" encoding="UTF-8"?>
<svg width="44px" height="44px" viewBox="0 0 44 44" version="1.1" xmlns="http://www.w3.org/2000/svg" xmlns:xlink="http://www.w3.org/1999/xlink">
    <!-- Generator: Sketch 57.1 (83088) - https://sketch.com -->
    <title>938-connections-toolbar@2x</title>
    <desc>Created with Sketch.</desc>
    <g id="Assets" stroke="none" stroke-width="1" fill="none" fill-rule="evenodd">
        <g id="Artboard" transform="translate(-906.000000, -864.000000)" fill="#000000" fill-rule="nonzero">
            <g id="Icons-44" transform="translate(22.000000, 22.000000)">
                <g id="938-connections-toolbar@2x" transform="translate(884.000000, 842.000000)">
                    <path d="M36.993,0 C33.131,0 30,3.131 30,6.993 C30,10.515 32.612,13.4 36,13.887 L36,20.987 L28.886,20.987 C28.394,17.605 25.511,15 21.993,15 C18.475,15 15.594,17.605 15.101,20.986 L7,20.986 C6.447,20.986 6,21.433 6,21.986 L6,30.1 C2.612,30.586 0,33.471 0,36.994 C0,40.856 3.131,43.987 6.993,43.987 C10.855,43.987 13.986,40.856 13.986,36.994 C13.986,33.476 11.381,30.594 8,30.102 L8,22.987 L15.101,22.987 C15.586,26.375 18.472,28.987 21.994,28.987 C25.516,28.987 28.401,26.375 28.888,22.987 L37,22.987 C37.553,22.987 38,22.54 38,21.987 L38,13.885 C41.381,13.394 43.986,10.511 43.986,6.993 C43.986,3.131 40.855,0 36.993,0 Z M12.008,36.979 C12.008,39.74 9.77,41.979 7.008,41.979 C4.247,41.979 2.008,39.74 2.008,36.979 C2.008,34.217 4.247,31.979 7.008,31.979 C9.77,31.979 12.008,34.217 12.008,36.979 Z M22.008,26.979 C19.247,26.979 17.008,24.74 17.008,21.979 C17.008,19.217 19.247,16.979 22.008,16.979 C24.77,16.979 27.008,19.217 27.008,21.979 C27.008,24.739 24.77,26.979 22.008,26.979 Z M37.008,11.979 C34.247,11.979 32.008,9.74 32.008,6.979 C32.008,4.217 34.247,1.979 37.008,1.979 C39.77,1.979 42.008,4.217 42.008,6.979 C42.008,9.739 39.77,11.979 37.008,11.979 Z" id="Shape"></path>
                </g>
            </g>
        </g>
    </g>
</svg>