<?xml version="1.0" encoding="UTF-8"?>
<svg width="44px" height="44px" viewBox="0 0 44 44" version="1.1" xmlns="http://www.w3.org/2000/svg" xmlns:xlink="http://www.w3.org/1999/xlink">
    <!-- Generator: Sketch 57.1 (83088) - https://sketch.com -->
    <title>833-diamond-toolbar@2x</title>
    <desc>Created with Sketch.</desc>
    <g id="Assets" stroke="none" stroke-width="1" fill="none" fill-rule="evenodd">
        <g id="Artboard" transform="translate(-717.000000, -197.000000)" fill="#000000" fill-rule="nonzero">
            <g id="Icons-44" transform="translate(22.000000, 22.000000)">
                <g id="833-diamond-toolbar@2x" transform="translate(695.000000, 175.000000)">
                    <path d="M44,13 C44,12.805 43.93,12.634 43.833,12.479 L43.848,12.47 L43.736,12.334 C43.72,12.317 43.709,12.298 43.693,12.282 L33.848,0.471 L33.833,0.48 C33.656,0.198 33.357,0 33,0 L11,0 C10.643,0 10.344,0.198 10.167,0.479 L10.152,0.47 L0.308,12.283 C0.292,12.299 0.281,12.317 0.266,12.334 L0.153,12.471 L0.168,12.48 C0.07,12.634 0,12.805 0,13 C0,13.217 0.083,13.405 0.199,13.569 L0.185,13.58 L21.185,43.58 L21.2,43.569 C21.381,43.823 21.664,44 22,44 C22.336,44 22.619,43.823 22.801,43.569 L22.816,43.58 L43.816,13.58 L43.801,13.569 C43.917,13.405 44,13.217 44,13 Z M32.543,2 L40.877,12 L33.489,12 L25.989,2 L32.543,2 Z M23.511,2 L31.011,12 L12.989,12 L20.489,2 L23.511,2 Z M11.457,2 L18.011,2 L10.511,12 L3.123,12 L11.457,2 Z M2.921,14 L10.304,14 L18.426,36.15 L2.921,14 Z M22,40.103 L12.43,14 L31.57,14 L22,40.103 Z M25.574,36.151 L33.696,14 L41.079,14 L25.574,36.151 Z" id="Shape"></path>
                </g>
            </g>
        </g>
    </g>
</svg>