<?xml version="1.0" encoding="UTF-8"?>
<svg width="36px" height="44px" viewBox="0 0 36 44" version="1.1" xmlns="http://www.w3.org/2000/svg" xmlns:xlink="http://www.w3.org/1999/xlink">
    <!-- Generator: Sketch 57.1 (83088) - https://sketch.com -->
    <title>738-document-1-toolbar@2x</title>
    <desc>Created with Sketch.</desc>
    <g id="Assets" stroke="none" stroke-width="1" fill="none" fill-rule="evenodd">
        <g id="Artboard" transform="translate(-104.000000, -530.000000)" fill="#000000" fill-rule="nonzero">
            <g id="Icons-44" transform="translate(22.000000, 22.000000)">
                <g id="738-document-1-toolbar@2x" transform="translate(82.000000, 508.000000)">
                    <path d="M24,0 L2,0 C0.896,0 0,0.896 0,2 L0,42 C0,43.104 0.896,44 2,44 L34,44 C35.104,44 36,43.104 36,42 L36,12 L24,0 Z M24,3 L33,12 L24,12 L24,3 Z M34,42 L2,42 L2,2 L22,2 L22,13 C22,13.553 22.447,14 23,14 L34,14 L34,42 Z" id="Shape"></path>
                </g>
            </g>
        </g>
    </g>
</svg>