<?xml version="1.0" encoding="UTF-8"?>
<svg width="44px" height="12px" viewBox="0 0 44 12" version="1.1" xmlns="http://www.w3.org/2000/svg" xmlns:xlink="http://www.w3.org/1999/xlink">
    <!-- Generator: Sketch 57.1 (83088) - https://sketch.com -->
    <title>727-more-toolbar@2x</title>
    <desc>Created with Sketch.</desc>
    <g id="Assets" stroke="none" stroke-width="1" fill="none" fill-rule="evenodd">
        <g id="Artboard" transform="translate(-421.000000, -196.000000)" fill="#000000" fill-rule="nonzero">
            <g id="Icons-44" transform="translate(22.000000, 22.000000)">
                <g id="727-more-toolbar@2x" transform="translate(399.000000, 174.000000)">
                    <path d="M5.994,0 C2.684,0 0,2.687 0,6 C0,9.313 2.684,12 5.994,12 C9.304,12 11.988,9.313 11.988,6 C11.988,2.687 9.305,0 5.994,0 Z M6.015,9.987 C3.804,9.987 2.012,8.203 2.012,6 C2.012,3.798 3.804,2.013 6.015,2.013 C8.225,2.013 10.018,3.798 10.018,6 C10.018,8.203 8.225,9.987 6.015,9.987 Z M37.994,0 C34.684,0 32,2.687 32,6 C32,9.313 34.684,12 37.994,12 C41.304,12 43.988,9.313 43.988,6 C43.988,2.687 41.305,0 37.994,0 Z M38.015,9.987 C35.804,9.987 34.012,8.203 34.012,6 C34.012,3.798 35.804,2.013 38.015,2.013 C40.225,2.013 42.018,3.798 42.018,6 C42.018,8.203 40.225,9.987 38.015,9.987 Z M21.994,0 C18.684,0 16,2.687 16,6 C16,9.313 18.684,12 21.994,12 C25.304,12 27.988,9.313 27.988,6 C27.988,2.687 25.305,0 21.994,0 Z M22.015,9.987 C19.804,9.987 18.012,8.203 18.012,6 C18.012,3.798 19.804,2.013 22.015,2.013 C24.225,2.013 26.018,3.798 26.018,6 C26.018,8.203 24.225,9.987 22.015,9.987 Z" id="Shape"></path>
                </g>
            </g>
        </g>
    </g>
</svg>